<svg xmlns="http://www.w3.org/2000/svg" viewBox="0 0 1057 744"><defs><style>.cls-1{fill:#fff;stroke:#333;stroke-miterlimit:10;stroke-width:3px;}.cls-2{font-size:32px;}.cls-13,.cls-2,.cls-5{fill:#333;}.cls-2,.cls-5{font-family:SairaCondensed-Regular, Saira Condensed;}.cls-3{letter-spacing:-0.01em;}.cls-4{letter-spacing:0em;}.cls-5{font-size:46px;}.cls-6{letter-spacing:-0.01em;}.cls-7{letter-spacing:-0.01em;}.cls-8{letter-spacing:0em;}.cls-9{letter-spacing:-0.03em;}.cls-10{letter-spacing:0em;}.cls-11{letter-spacing:0em;}.cls-12{letter-spacing:-0.03em;}</style></defs><title>Example2_ngd</title><g id="Camada_2" data-name="Camada 2"><g id="Camada_4" data-name="Camada 4"><rect class="cls-1" x="1.5" y="636.64" width="843.2" height="105.86"/><polygon class="cls-1" points="1055.5 1.5 1055.5 742.5 844.7 742.5 844.7 636.64 1.5 636.64 1.5 1.5 1055.5 1.5"/><line class="cls-1" x1="1055.5" y1="636.64" x2="844.7" y2="636.64"/><line class="cls-1" x1="1.5" y1="530.79" x2="1055.5" y2="530.79"/><line class="cls-1" x1="1.5" y1="424.93" x2="1055.5" y2="424.93"/><line class="cls-1" x1="1.5" y1="319.07" x2="1055.5" y2="319.07"/><line class="cls-1" x1="1.5" y1="213.21" x2="1055.5" y2="213.21"/><line class="cls-1" x1="1.5" y1="107.36" x2="1055.5" y2="107.36"/><polyline class="cls-1" points="844.7 636.64 844.7 530.79 844.7 424.93 844.7 319.07 844.7 213.21 844.7 107.36 844.7 1.5"/><polyline class="cls-1" points="633.9 636.64 633.9 530.79 633.9 424.93 633.9 319.07 633.9 213.21 633.9 107.36 633.9 1.5"/><polyline class="cls-1" points="423.1 636.64 423.1 530.79 423.1 424.93 423.1 319.07 423.1 213.21 423.1 107.36 423.1 1.5"/><polyline class="cls-1" points="212.3 636.64 212.3 530.79 212.3 424.93 212.3 319.07 212.3 213.21 212.3 107.36 212.3 1.5"/><text class="cls-2" transform="translate(31.5 64.5)">Equipamen<tspan class="cls-3" x="127.26" y="0">t</tspan><tspan class="cls-4" x="135.84" y="0">o</tspan></text><text class="cls-5" transform="translate(308.5 177.5)">2</text><text class="cls-5" transform="translate(308.5 285.5)">4</text><text class="cls-5" transform="translate(310.5 390.5)">1</text><text class="cls-5" transform="translate(310.5 488.5)">1</text><text class="cls-5" transform="translate(312.5 594.5)">1</text><text class="cls-5" transform="translate(506.17 182.5)">12</text><text class="cls-5" transform="translate(511.23 287.5)">8</text><text class="cls-5" transform="translate(497.04 391.5)">120</text><text class="cls-5" transform="translate(502.42 493.5)">90</text><text class="cls-5" transform="translate(502.76 599.5)">110</text><text class="cls-5" transform="translate(725.55 181.5)">6</text><text class="cls-5" transform="translate(725.55 286.5)">6</text><text class="cls-5" transform="translate(721.07 390.5)">10</text><text class="cls-5" transform="translate(717.71 492.5)">24</text><text class="cls-5" transform="translate(730.4 598.5)">5</text><text class="cls-5" transform="translate(922.67 182.5)">144</text><text class="cls-5" transform="translate(923.22 287.5)">192</text><text class="cls-5" transform="translate(913.91 391.5)">1200</text><text class="cls-5" transform="translate(914.09 493.5)">2160</text><text class="cls-5" transform="translate(912 706.5)">4246</text><text class="cls-5" transform="translate(923.17 599.5)">550</text><text class="cls-2" transform="translate(249.5 64.5)">Quantidade</text><text class="cls-2" transform="translate(476.5 45.5)">Consumo<tspan x="-14.33" y="38.4">Uni</tspan><tspan class="cls-6" x="22.88" y="38.4">t</tspan><tspan x="31.3" y="38.4">ário (W)</tspan></text><text class="cls-2" transform="translate(49.98 149.5)">Lâmpadas<tspan class="cls-7"><tspan x="8.88" y="38.4">e</tspan><tspan class="cls-8" x="22.26" y="38.4">x</tspan><tspan class="cls-3" x="35.41" y="38.4">t</tspan><tspan class="cls-4" x="43.98" y="38.4">ernas</tspan></tspan></text><text class="cls-2" transform="translate(49.98 259.5)">Lâmpadas<tspan x="11.76" y="38.4">in</tspan><tspan class="cls-3" x="32.53" y="38.4">t</tspan><tspan class="cls-4" x="41.1" y="38.4">ernas</tspan></text><text class="cls-2" transform="translate(50.67 367.5)"><tspan class="cls-9">V</tspan><tspan x="13.82" y="0">entilador</tspan><tspan x="17.74" y="38.4">de </tspan><tspan class="cls-10" x="51.98" y="38.4">tet</tspan><tspan x="82.67" y="38.4">o</tspan></text><text class="cls-2" transform="translate(55.01 467.5)">Geladei<tspan class="cls-7" x="83.39" y="0">r</tspan><tspan x="92.19" y="0">a</tspan><tspan x="-13.95" y="38.4">(Uma po</tspan><tspan class="cls-11" x="80.61" y="38.4">r</tspan><tspan class="cls-6" x="89.85" y="38.4">t</tspan><tspan x="98.27" y="38.4">a)</tspan></text><text class="cls-2" transform="translate(32.96 594.5)"><tspan class="cls-12">T</tspan><tspan class="cls-8" x="12.26" y="0">el</tspan><tspan class="cls-7" x="32.22" y="0">e</tspan><tspan x="45.6" y="0">visão 29”</tspan></text><text class="cls-2" transform="translate(665.32 45.5)">Ho<tspan class="cls-7" x="30.91" y="0">r</tspan><tspan x="39.71" y="0">as de uso</tspan><tspan x="34.19" y="38.4">por dia</tspan></text><text class="cls-2" transform="translate(864.82 45.5)">Consumo Diário<tspan x="68.75" y="38.4">(W)</tspan></text><text class="cls-5" transform="translate(74.2 706.5)">NECESSIDADE DE GERAÇÃO DIÁRIA (W/dia)</text><path class="cls-13" d="M430,181.5l-6.44-13h-.28l-6.39,13h-3.73l8.14-15.92-8.05-15.73h3.87l6.34,12.74h.23L430,149.85h3.73l-8.05,15.64,8.14,16Z"/><path class="cls-13" d="M640,181.5l-6.44-13h-.28l-6.39,13h-3.73l8.14-15.92-8-15.73h3.87l6.34,12.74h.23L640,149.85h3.73l-8,15.64,8.14,16Z"/><path class="cls-13" d="M430,285.5l-6.44-13h-.28l-6.39,13h-3.73l8.14-15.92-8.05-15.73h3.87l6.34,12.74h.23L430,253.85h3.73l-8.05,15.64,8.14,16Z"/><path class="cls-13" d="M640,285.5l-6.44-13h-.28l-6.39,13h-3.73l8.14-15.92-8-15.73h3.87l6.34,12.74h.23L640,253.85h3.73l-8,15.64,8.14,16Z"/><path class="cls-13" d="M428,389.5l-6.44-13h-.28l-6.39,13h-3.73l8.14-15.92-8.05-15.73h3.87l6.34,12.74h.23L428,357.85h3.73l-8.05,15.64,8.14,16Z"/><path class="cls-13" d="M638,389.5l-6.44-13h-.28l-6.39,13h-3.73l8.14-15.92-8-15.73h3.87l6.34,12.74h.23L638,357.85h3.73l-8,15.64,8.14,16Z"/><path class="cls-13" d="M430,493.5l-6.44-13h-.28l-6.39,13h-3.73l8.14-15.92-8.05-15.73h3.87l6.34,12.74h.23L430,461.85h3.73l-8.05,15.64,8.14,16Z"/><path class="cls-13" d="M640,493.5l-6.44-13h-.28l-6.39,13h-3.73l8.14-15.92-8-15.73h3.87l6.34,12.74h.23L640,461.85h3.73l-8,15.64,8.14,16Z"/><path class="cls-13" d="M430,597.5l-6.44-13h-.28l-6.39,13h-3.73l8.14-15.92-8.05-15.73h3.87l6.34,12.74h.23L430,565.85h3.73l-8.05,15.64,8.14,16Z"/><path class="cls-13" d="M640,597.5l-6.44-13h-.28l-6.39,13h-3.73l8.14-15.92-8-15.73h3.87l6.34,12.74h.23L640,565.85h3.73l-8,15.64,8.14,16Z"/><path class="cls-13" d="M829.22,160.57v-5.11H859.9v5.11Zm0,15.34v-5H859.9v5Z"/><path class="cls-13" d="M829.22,264.57v-5.11H859.9v5.11Zm0,15.34v-5H859.9v5Z"/><path class="cls-13" d="M829.22,368.57v-5.11H859.9v5.11Zm0,15.34v-5H859.9v5Z"/><path class="cls-13" d="M829.22,472.57v-5.11H859.9v5.11Zm0,15.34v-5H859.9v5Z"/><path class="cls-13" d="M829.22,576.57v-5.11H859.9v5.11Zm0,15.34v-5H859.9v5Z"/></g></g></svg>